<svg width="63" height="31" viewBox="0 0 63 31" fill="none" xmlns="http://www.w3.org/2000/svg">
<path d="M48.9832 3.01477C50.3909 4.24099 51.6301 5.31881 52.8894 6.41616C52.7611 6.58798 52.6849 6.71685 52.5806 6.82229C46.5207 13.0159 39.8792 18.5065 32.163 22.6655C27.3263 25.2702 22.2609 27.2423 16.6742 27.6875C9.1986 28.2811 3.78037 24.3564 2.28845 17.2178C1.71494 14.4725 1.68286 11.6998 2.0037 8.92717C2.20423 7.20109 2.51705 5.48673 2.78575 3.70208C2.43283 3.62007 2.12 3.54978 1.75504 3.46777C0.323281 8.26329 -0.490858 13.0354 0.323282 17.9285C1.57858 25.4459 6.49149 29.9915 14.1957 30.8468C19.3052 31.413 24.186 30.3469 28.9545 28.6872C36.8312 25.9419 43.8216 21.6736 50.3347 16.632C52.8293 14.7029 55.2115 12.6332 57.7181 10.5673C58.9373 11.5944 60.2047 12.6644 61.5843 13.832C62.0655 9.13023 62.5268 4.62369 63 0C58.2555 1.02315 53.7156 1.99944 48.9832 3.01868V3.01477Z" fill="#12B347"/>
</svg>
