<svg width="48" height="34" viewBox="0 0 48 34" fill="none" xmlns="http://www.w3.org/2000/svg">
<path d="M6.51768 11.189C7.20445 4.76568 12.9641 0.11412 19.3874 0.800888C23.2887 1.21641 26.7167 3.5595 28.5231 7.03374C32.7995 5.00229 37.9128 6.82021 39.9442 11.0966C40.2674 11.7719 40.4983 12.4933 40.631 13.232H40.7753C44.2264 13.232 47.0197 16.0194 47.0255 19.4706C47.0255 22.9217 44.238 25.715 40.7868 25.7208C40.4001 25.7208 40.0135 25.6861 39.6326 25.6111C38.663 28.4678 35.9852 30.3896 32.9727 30.4012C31.9281 30.4012 30.9008 30.1646 29.9601 29.7144C26.4628 34.0889 20.0857 34.793 15.7111 31.3015C14.3376 30.205 13.2757 28.7737 12.6293 27.1405C8.39908 29.2816 3.23388 27.5848 1.09278 23.3488C-1.04832 19.1186 0.648401 13.9534 4.88443 11.8123C5.40384 11.5468 5.9521 11.339 6.5119 11.189H6.51768ZM8.77997 26.4941C10.1477 26.4941 11.4866 26.0959 12.6351 25.3399C12.9929 25.1032 13.4777 25.2071 13.7143 25.5649C13.7547 25.6284 13.7893 25.6977 13.8124 25.7727C15.134 30.3204 19.8952 32.9405 24.4429 31.6189C26.3358 31.0706 27.9806 29.8818 29.1002 28.2601C29.3368 27.9196 29.7928 27.8215 30.1448 28.035C32.713 29.6047 36.0718 28.791 37.6358 26.2171C37.959 25.6861 38.1898 25.1032 38.3168 24.4973C38.3629 24.278 38.4957 24.0933 38.6919 23.9836C38.8823 23.874 39.1132 23.8509 39.3267 23.9144C41.7795 24.7397 44.44 23.4181 45.2652 20.9653C46.0905 18.5126 44.7689 15.8521 42.3162 15.0268C41.6006 14.7844 40.833 14.7209 40.0827 14.8421C39.8692 14.8767 39.6557 14.819 39.4825 14.6863C39.3152 14.5536 39.2055 14.3573 39.1882 14.138C38.8419 10.2829 35.4312 7.44349 31.576 7.78976C30.5142 7.88787 29.4927 8.2226 28.5808 8.77086C28.2115 8.99594 27.7325 8.87474 27.5074 8.50539C27.4901 8.47653 27.4728 8.44191 27.4612 8.41305C25.2393 3.27095 19.2777 0.90477 14.1356 3.12667C10.6152 4.65025 8.24901 8.02638 8.03548 11.8584C8.01817 12.2105 7.75847 12.5106 7.4122 12.5798C3.60901 13.3474 1.14472 17.0467 1.91229 20.8499C2.5702 24.1221 5.44424 26.4825 8.78574 26.4883L8.77997 26.4941Z" fill="#F1F1F1"/>
</svg>
