<svg width="23" height="23" viewBox="0 0 23 23" fill="none" xmlns="http://www.w3.org/2000/svg">
<g clip-path="url(#clip0_984_264)">
<path d="M13.7692 9.48253C13.8913 9.60467 14.0509 9.66525 14.2116 9.66525C14.3722 9.66525 14.5318 9.60467 14.6539 9.48253L17.5294 6.60705L20.4049 9.48253C20.527 9.60467 20.6867 9.66525 20.8473 9.66525C21.0079 9.66525 21.1675 9.60467 21.2897 9.48253C21.5339 9.23826 21.5339 8.843 21.2897 8.59873L18.4142 5.72325L21.2897 2.84777C21.5339 2.6035 21.5339 2.20824 21.2897 1.96397C21.0454 1.71969 20.6501 1.71969 20.4059 1.96397L17.5304 4.83945L14.6549 1.96397C14.4106 1.71969 14.0154 1.71969 13.7711 1.96397C13.5268 2.20824 13.5268 2.6035 13.7711 2.84777L16.6466 5.72325L13.7711 8.59873C13.5268 8.843 13.5268 9.23826 13.7711 9.48253H13.7692Z" fill="#C1301D"/>
<path d="M1.53382 9.0548C1.65595 9.17693 1.8156 9.23752 1.9762 9.23752C2.1368 9.23752 2.29645 9.17693 2.41858 9.0548L5.29406 6.17932L8.16954 9.0548C8.29168 9.17693 8.45132 9.23752 8.61193 9.23752C8.77253 9.23752 8.93217 9.17693 9.05431 9.0548C9.29858 8.81052 9.29858 8.41527 9.05431 8.17099L6.17883 5.29551L9.05431 2.42003C9.29858 2.17576 9.29858 1.7805 9.05431 1.53623C8.81004 1.29196 8.41478 1.29196 8.17051 1.53623L5.29502 4.41171L2.41954 1.53623C2.17527 1.29196 1.78001 1.29196 1.53574 1.53623C1.29147 1.7805 1.29147 2.17576 1.53574 2.42003L4.41122 5.29551L1.53574 8.17099C1.29147 8.41527 1.29147 8.81052 1.53574 9.0548H1.53382Z" fill="#C1301D"/>
<path d="M9.24571 13.7125C9.00144 13.4682 8.60618 13.4682 8.36191 13.7125L5.48643 16.588L2.61095 13.7125C2.36668 13.4682 1.97142 13.4682 1.72715 13.7125C1.48288 13.9568 1.48288 14.352 1.72715 14.5963L4.60263 17.4718L1.72715 20.3473C1.48288 20.5915 1.48288 20.9868 1.72715 21.2311C1.84928 21.3532 2.00893 21.4138 2.16953 21.4138C2.33013 21.4138 2.48978 21.3532 2.61191 21.2311L5.48739 18.3556L8.36287 21.2311C8.48501 21.3532 8.64465 21.4138 8.80525 21.4138C8.96586 21.4138 9.1255 21.3532 9.24764 21.2311C9.49191 20.9868 9.49191 20.5915 9.24764 20.3473L6.37216 17.4718L9.24764 14.5963C9.49191 14.352 9.49191 13.9568 9.24764 13.7125H9.24571Z" fill="#C1301D"/>
<path d="M22.5191 11.0192H11.9808V0.48085C11.9808 0.215421 11.7654 0 11.5 0C11.2346 0 11.0192 0.215421 11.0192 0.48085V11.0192H0.48085C0.215421 11.0192 0 11.2346 0 11.5C0 11.7654 0.215421 11.9808 0.48085 11.9808H11.0192V22.5191C11.0192 22.7846 11.2346 23 11.5 23C11.7654 23 11.9808 22.7846 11.9808 22.5191V11.9808H22.5191C22.7846 11.9808 23 11.7654 23 11.5C23 11.2346 22.7846 11.0192 22.5191 11.0192Z" fill="#C1301D"/>
<path fill-rule="evenodd" clip-rule="evenodd" d="M21.6469 14.206C21.9111 14.4702 21.9111 14.8985 21.6469 15.1627L16.2352 20.5745L13.7274 18.0667C13.4633 17.8026 13.4633 17.3742 13.7274 17.1101C13.9916 16.8459 14.4199 16.8459 14.6841 17.1101L16.2352 18.6611L20.6903 14.206C20.9544 13.9418 21.3828 13.9418 21.6469 14.206Z" fill="#C1301D"/>
</g>
<defs>
<clipPath id="clip0_984_264">
<rect width="23" height="23" fill="white"/>
</clipPath>
</defs>
</svg>
